#tb 0: 1/25
#media_type 0: video
#codec_id 0: rawvideo
#dimensions 0: 720x480
#sar 0: 0/1
0,          1,          1,        1,   518400, 0xd9444d71
0,          2,          2,        1,   518400, 0x5d8928cd
0,          3,          3,        1,   518400, 0xea5bc08b
0,          4,          4,        1,   518400, 0xb4465d31
0,          5,          5,        1,   518400, 0x983b5dbb
0,          6,          6,        1,   518400, 0x54936746
0,          7,          7,        1,   518400, 0x7ae38b02
0,          8,          8,        1,   518400, 0xc2a0dd83
0,          9,          9,        1,   518400, 0x61cac7a6
0,         10,         10,        1,   518400, 0xb0038443
0,         11,         11,        1,   518400, 0x16514296
0,         12,         12,        1,   518400, 0xa68dd470
0,         13,         13,        1,   518400, 0x2572f868
0,         14,         14,        1,   518400, 0x770a3239
0,         15,         15,        1,   518400, 0xdd04f6d2
0,         16,         16,        1,   518400, 0xa5e5d01e
0,         17,         17,        1,   518400, 0x5fe25c86
